<mxfile host="app.diagrams.net" modified="2023-06-11T15:23:30.486Z" agent="Mozilla/5.0 (Windows NT 10.0; Win64; x64; rv:109.0) Gecko/20100101 Firefox/114.0" etag="_CBXQwwntkiNXJtSotzw" version="21.3.8" type="github">
  <diagram name="Page-1" id="97916047-d0de-89f5-080d-49f4d83e522f">
    <mxGraphModel dx="6375" dy="1588" grid="1" gridSize="15" guides="1" tooltips="1" connect="1" arrows="1" fold="1" page="1" pageScale="1.5" pageWidth="1169" pageHeight="827" background="none" math="0" shadow="0">
      <root>
        <mxCell id="0" />
        <mxCell id="1" parent="0" />
        <mxCell id="q62X1OPbBHmOXAmcqwwK-60" value="DevOps" style="rounded=0;whiteSpace=wrap;html=1;absoluteArcSize=1;arcSize=14;strokeWidth=5;fillColor=#f8cecc;strokeColor=#b85450;dashed=1;dashPattern=8 8;fontSize=76;labelPosition=center;verticalLabelPosition=bottom;align=center;verticalAlign=top;fontColor=#ff0000;" parent="1" vertex="1">
          <mxGeometry x="-1102.5" y="300" width="1065" height="960" as="geometry" />
        </mxCell>
        <mxCell id="CrXu2PX2MfrCH1NT0C0y-90" style="edgeStyle=orthogonalEdgeStyle;rounded=1;orthogonalLoop=1;jettySize=auto;html=1;entryX=0.5;entryY=0;entryDx=0;entryDy=0;strokeWidth=4;exitX=0.5;exitY=1;exitDx=0;exitDy=0;" parent="1" source="2" target="CrXu2PX2MfrCH1NT0C0y-88" edge="1">
          <mxGeometry relative="1" as="geometry">
            <Array as="points" />
          </mxGeometry>
        </mxCell>
        <mxCell id="2" value="CEO" style="rounded=1;fillColor=#10739E;strokeColor=none;shadow=1;gradientColor=none;fontStyle=1;fontColor=#FFFFFF;fontSize=40;" parent="1" vertex="1">
          <mxGeometry x="-820" y="50" width="200" height="60" as="geometry" />
        </mxCell>
        <mxCell id="CrXu2PX2MfrCH1NT0C0y-84" style="edgeStyle=orthogonalEdgeStyle;rounded=1;orthogonalLoop=1;jettySize=auto;html=1;exitX=0.5;exitY=1;exitDx=0;exitDy=0;entryX=0.58;entryY=0.167;entryDx=0;entryDy=0;entryPerimeter=0;strokeWidth=4;strokeColor=none;" parent="1" source="4" target="CrXu2PX2MfrCH1NT0C0y-81" edge="1">
          <mxGeometry relative="1" as="geometry" />
        </mxCell>
        <mxCell id="CrXu2PX2MfrCH1NT0C0y-85" style="edgeStyle=orthogonalEdgeStyle;rounded=1;orthogonalLoop=1;jettySize=auto;html=1;exitX=0.5;exitY=1;exitDx=0;exitDy=0;entryX=0.5;entryY=0;entryDx=0;entryDy=0;strokeWidth=4;" parent="1" source="4" target="CrXu2PX2MfrCH1NT0C0y-81" edge="1">
          <mxGeometry relative="1" as="geometry" />
        </mxCell>
        <mxCell id="CrXu2PX2MfrCH1NT0C0y-86" style="edgeStyle=orthogonalEdgeStyle;rounded=1;orthogonalLoop=1;jettySize=auto;html=1;entryX=0.5;entryY=0;entryDx=0;entryDy=0;strokeWidth=4;" parent="1" source="4" target="CrXu2PX2MfrCH1NT0C0y-83" edge="1">
          <mxGeometry relative="1" as="geometry" />
        </mxCell>
        <mxCell id="4" value="Market &amp; Sales Dept" style="rounded=1;fillColor=#10739E;strokeColor=none;shadow=1;gradientColor=none;fontStyle=1;fontColor=#FFFFFF;fontSize=18;" parent="1" vertex="1">
          <mxGeometry x="-1770" y="390" width="200" height="60" as="geometry" />
        </mxCell>
        <mxCell id="5" value="PMO " style="rounded=1;fillColor=#10739E;strokeColor=none;shadow=1;gradientColor=none;fontStyle=1;fontColor=#FFFFFF;fontSize=25;" parent="1" vertex="1">
          <mxGeometry x="-310" y="420" width="200" height="60" as="geometry" />
        </mxCell>
        <mxCell id="6" value="HR" style="rounded=1;fillColor=#10739E;strokeColor=none;shadow=1;gradientColor=none;fontStyle=1;fontColor=#FFFFFF;fontSize=32;" parent="1" vertex="1">
          <mxGeometry x="-1552" y="390" width="200" height="60" as="geometry" />
        </mxCell>
        <mxCell id="8" value="Development Team" style="rounded=1;fillColor=#10739E;strokeColor=none;shadow=1;gradientColor=none;fontStyle=1;fontColor=#FFFFFF;fontSize=17;" parent="1" vertex="1">
          <mxGeometry x="-782.5" y="765" width="195" height="60" as="geometry" />
        </mxCell>
        <mxCell id="13" value="Code Repository" style="rounded=1;fillColor=#10739E;strokeColor=none;shadow=1;gradientColor=none;fontStyle=1;fontColor=#FFFFFF;fontSize=18;" parent="1" vertex="1">
          <mxGeometry x="-540" y="765" width="200" height="60" as="geometry" />
        </mxCell>
        <mxCell id="18" value="BusineAnalyst" style="rounded=1;fillColor=#10739E;strokeColor=none;shadow=1;gradientColor=none;fontStyle=1;fontColor=#FFFFFF;fontSize=20;" parent="1" vertex="1">
          <mxGeometry x="-1035" y="765" width="200" height="60" as="geometry" />
        </mxCell>
        <mxCell id="23" value="Â DEV OPS JIRA Regulatory &#xa;and Enforcement Process" style="rounded=1;fillColor=#81a9e4;strokeColor=none;shadow=1;gradientColor=none;fontStyle=1;fontColor=#FFFFFF;fontSize=37;" parent="1" vertex="1">
          <mxGeometry x="-1050" y="1110" width="960" height="135" as="geometry" />
        </mxCell>
        <mxCell id="30" value="" style="edgeStyle=elbowEdgeStyle;elbow=vertical;strokeWidth=4;endArrow=block;endFill=1;fontStyle=1;strokeColor=#23445D;exitX=0.5;exitY=1;exitDx=0;exitDy=0;entryX=0.5;entryY=0;entryDx=0;entryDy=0;" parent="1" target="5" edge="1">
          <mxGeometry x="-1340" y="130" width="100" height="100" as="geometry">
            <mxPoint x="-720" y="110" as="sourcePoint" />
            <mxPoint x="320" y="400" as="targetPoint" />
            <Array as="points">
              <mxPoint x="-170" y="250" />
            </Array>
          </mxGeometry>
        </mxCell>
        <mxCell id="31" value="" style="edgeStyle=elbowEdgeStyle;elbow=vertical;strokeWidth=4;endArrow=block;endFill=1;fontStyle=1;strokeColor=#23445D;exitX=0.5;exitY=1;exitDx=0;exitDy=0;" parent="1" source="2" target="4" edge="1">
          <mxGeometry x="-1340" y="130" width="100" height="100" as="geometry">
            <mxPoint x="-579" y="370" as="sourcePoint" />
            <mxPoint x="-1240" y="130" as="targetPoint" />
          </mxGeometry>
        </mxCell>
        <mxCell id="32" value="" style="edgeStyle=elbowEdgeStyle;elbow=vertical;strokeWidth=4;endArrow=block;endFill=1;fontStyle=1;strokeColor=#23445D;exitX=0.5;exitY=1;exitDx=0;exitDy=0;" parent="1" source="2" target="6" edge="1">
          <mxGeometry x="-1340" y="130" width="100" height="100" as="geometry">
            <mxPoint x="-579" y="370" as="sourcePoint" />
            <mxPoint x="-1240" y="130" as="targetPoint" />
            <Array as="points" />
          </mxGeometry>
        </mxCell>
        <mxCell id="CrXu2PX2MfrCH1NT0C0y-64" value="" style="edgeStyle=elbowEdgeStyle;elbow=vertical;strokeWidth=4;endArrow=block;endFill=1;fontStyle=1;strokeColor=#23445D;exitX=0.5;exitY=1;exitDx=0;exitDy=0;entryX=0.5;entryY=0;entryDx=0;entryDy=0;" parent="1" source="2" target="CrXu2PX2MfrCH1NT0C0y-61" edge="1">
          <mxGeometry x="-1330" y="140" width="100" height="100" as="geometry">
            <mxPoint x="-550" y="120" as="sourcePoint" />
            <mxPoint x="-400" y="430" as="targetPoint" />
            <Array as="points">
              <mxPoint x="-760" y="250" />
              <mxPoint x="-90" y="430" />
              <mxPoint x="-340" y="270" />
              <mxPoint x="-360" y="230" />
              <mxPoint x="-320" y="274" />
            </Array>
          </mxGeometry>
        </mxCell>
        <mxCell id="CrXu2PX2MfrCH1NT0C0y-70" value="Services Delivery" style="rounded=1;fillColor=#10739E;strokeColor=none;shadow=1;gradientColor=default;fontStyle=1;fontColor=#FFFFFF;fontSize=18;" parent="1" vertex="1">
          <mxGeometry x="-555" y="600" width="200" height="60" as="geometry" />
        </mxCell>
        <mxCell id="CrXu2PX2MfrCH1NT0C0y-81" value="Presales" style="rounded=1;fillColor=#10739E;strokeColor=none;shadow=1;gradientColor=none;fontStyle=1;fontColor=#FFFFFF;fontSize=23;" parent="1" vertex="1">
          <mxGeometry x="-1425" y="645" width="200" height="60" as="geometry" />
        </mxCell>
        <mxCell id="CrXu2PX2MfrCH1NT0C0y-83" value="Accou8nt Managers" style="rounded=1;fillColor=#10739E;strokeColor=none;shadow=1;gradientColor=none;fontStyle=1;fontColor=#FFFFFF;fontSize=18;" parent="1" vertex="1">
          <mxGeometry x="-1730" y="645" width="200" height="60" as="geometry" />
        </mxCell>
        <mxCell id="CrXu2PX2MfrCH1NT0C0y-88" value="Finanse" style="rounded=1;fillColor=#10739E;strokeColor=none;shadow=1;gradientColor=none;fontStyle=1;fontColor=#FFFFFF;fontSize=23;" parent="1" vertex="1">
          <mxGeometry x="-1332" y="390" width="200" height="60" as="geometry" />
        </mxCell>
        <mxCell id="q62X1OPbBHmOXAmcqwwK-58" style="edgeStyle=orthogonalEdgeStyle;rounded=0;orthogonalLoop=1;jettySize=auto;html=1;entryX=0.5;entryY=0;entryDx=0;entryDy=0;dashed=1;strokeWidth=6;fillColor=#f8cecc;strokeColor=#b85450;" parent="1" source="CrXu2PX2MfrCH1NT0C0y-61" target="CrXu2PX2MfrCH1NT0C0y-81" edge="1">
          <mxGeometry relative="1" as="geometry">
            <Array as="points">
              <mxPoint x="-680" y="510" />
              <mxPoint x="-1305" y="510" />
              <mxPoint x="-1305" y="615" />
              <mxPoint x="-1325" y="615" />
            </Array>
          </mxGeometry>
        </mxCell>
        <mxCell id="5qOrhaFOBWcQHs733vTS-32" style="edgeStyle=orthogonalEdgeStyle;rounded=1;orthogonalLoop=1;jettySize=auto;html=1;strokeWidth=4;exitX=0.5;exitY=1;exitDx=0;exitDy=0;" parent="1" source="CrXu2PX2MfrCH1NT0C0y-61" target="CrXu2PX2MfrCH1NT0C0y-70" edge="1">
          <mxGeometry relative="1" as="geometry" />
        </mxCell>
        <mxCell id="CrXu2PX2MfrCH1NT0C0y-61" value="CTO" style="rounded=1;fillColor=#10739E;strokeColor=none;shadow=1;gradientColor=none;fontStyle=1;fontColor=#FFFFFF;fontSize=25;" parent="1" vertex="1">
          <mxGeometry x="-785" y="420" width="200" height="60" as="geometry" />
        </mxCell>
        <mxCell id="CrXu2PX2MfrCH1NT0C0y-106" value="System Engineers " style="rounded=1;fillColor=#10739E;strokeColor=none;shadow=1;gradientColor=none;fontStyle=1;fontColor=#FFFFFF;fontSize=18;" parent="1" vertex="1">
          <mxGeometry x="-315" y="870" width="210" height="60" as="geometry" />
        </mxCell>
        <mxCell id="CrXu2PX2MfrCH1NT0C0y-108" value="Project Managers" style="rounded=1;fillColor=#10739E;strokeColor=none;shadow=1;gradientColor=none;fontStyle=1;fontColor=#FFFFFF;fontSize=18;" parent="1" vertex="1">
          <mxGeometry x="-315" y="600" width="210" height="60" as="geometry" />
        </mxCell>
        <mxCell id="CrXu2PX2MfrCH1NT0C0y-122" value="QA Team" style="rounded=1;fillColor=#10739E;strokeColor=none;shadow=1;gradientColor=none;fontStyle=1;fontColor=#FFFFFF;fontSize=20;" parent="1" vertex="1">
          <mxGeometry x="-540" y="870" width="200" height="60" as="geometry" />
        </mxCell>
        <mxCell id="7" value="Egypt Development Center" style="rounded=1;fillColor=#10739E;strokeColor=none;shadow=1;gradientColor=none;fontStyle=1;fontColor=#FFFFFF;fontSize=58;" parent="1" vertex="1">
          <mxGeometry x="-1050" y="945" width="960" height="135" as="geometry" />
        </mxCell>
        <mxCell id="CrXu2PX2MfrCH1NT0C0y-109" value="Scrum Masters" style="rounded=1;fillColor=#10739E;strokeColor=none;shadow=1;gradientColor=none;fontStyle=1;fontColor=#FFFFFF;fontSize=19;" parent="1" vertex="1">
          <mxGeometry x="-1035" y="870" width="200" height="60" as="geometry" />
        </mxCell>
        <mxCell id="q62X1OPbBHmOXAmcqwwK-56" value="" style="edgeStyle=orthogonalEdgeStyle;rounded=1;orthogonalLoop=1;jettySize=auto;html=1;entryX=0.5;entryY=0;entryDx=0;entryDy=0;strokeWidth=4;exitX=0.5;exitY=1;exitDx=0;exitDy=0;" parent="1" source="CrXu2PX2MfrCH1NT0C0y-61" target="CrXu2PX2MfrCH1NT0C0y-71" edge="1">
          <mxGeometry relative="1" as="geometry">
            <mxPoint x="-680" y="450" as="sourcePoint" />
            <mxPoint x="-748" y="570" as="targetPoint" />
          </mxGeometry>
        </mxCell>
        <mxCell id="CrXu2PX2MfrCH1NT0C0y-71" value="Agile Delivery" style="rounded=1;fillColor=#10739E;strokeColor=none;shadow=1;gradientColor=default;fontStyle=1;fontColor=#FFFFFF;fontSize=20;" parent="1" vertex="1">
          <mxGeometry x="-1050" y="600" width="200" height="60" as="geometry" />
        </mxCell>
        <mxCell id="q62X1OPbBHmOXAmcqwwK-57" value="project Support" style="rounded=1;fillColor=#10739E;strokeColor=none;shadow=1;gradientColor=none;fontStyle=1;fontColor=#FFFFFF;fontSize=19;" parent="1" vertex="1">
          <mxGeometry x="-315" y="765" width="210" height="60" as="geometry" />
        </mxCell>
        <mxCell id="6kh2NXwSWNFiOTCWh3Pq-33" value="Product Managers" style="rounded=1;fillColor=#10739E;strokeColor=none;shadow=1;gradientColor=none;fontStyle=1;fontColor=#FFFFFF;fontSize=17;" vertex="1" parent="1">
          <mxGeometry x="-780" y="870" width="195" height="60" as="geometry" />
        </mxCell>
      </root>
    </mxGraphModel>
  </diagram>
</mxfile>
